<svg width="987" height="479" viewBox="0 0 987 479" fill="none" xmlns="http://www.w3.org/2000/svg">
<mask id="mask0_1_596" style="mask-type:luminance" maskUnits="userSpaceOnUse" x="0" y="0" width="987" height="479">
<path d="M987 0H0V479H987V0Z" fill="white"/>
</mask>
<g mask="url(#mask0_1_596)">
<path d="M1048.17 -53.2218H-52.8242V421.342H1048.17V-53.2218Z" fill="#1F1240"/>
</g>
<mask id="mask1_1_596" style="mask-type:luminance" maskUnits="userSpaceOnUse" x="0" y="0" width="987" height="479">
<path d="M987 0H0V479H987V0Z" fill="white"/>
</mask>
<g mask="url(#mask1_1_596)">
<g opacity="0.1">
<path d="M-99.001 57.3863C-22.1483 47.6835 55.5632 42.3381 133.363 41.4013C187.505 40.7479 243.073 42.4562 293.169 58.8427C331.05 71.234 366.182 92.0251 407.073 93.6626C462.661 95.8905 512.939 61.9169 568.537 63.9165C610.129 65.4123 647.482 86.9435 689.074 88.3802C738.824 90.0964 782.42 63.2277 830.561 53.0761C904.857 37.4099 983.501 62.5192 1059.94 56.2015C1066.34 85.0029 1066.57 114.662 1060.65 143.527C1013.98 136.044 967.166 129.156 920.195 122.991C881.929 117.969 842.454 113.454 804.681 120.46C780.07 125.027 756.526 134.434 731.258 134.666C699.822 134.958 671.328 121.126 641.54 113.104C603.161 102.771 560.789 102.118 521.935 111.258C492.784 118.114 464.492 130.447 434.152 129.03C388.202 126.884 353.321 94.2885 308.758 85.0974C258.061 74.6427 206.841 95.8827 157.757 110.427C87.6555 131.195 11.538 138.91 -62.8472 132.785C-71.4045 132.08 -80.9537 130.734 -85.9282 125.129C-89.4913 121.114 -89.7676 115.867 -89.9157 110.947C-90.4487 93.0407 -90.9817 75.1348 -91.5146 57.2289" fill="white"/>
</g>
</g>
<mask id="mask2_1_596" style="mask-type:luminance" maskUnits="userSpaceOnUse" x="0" y="0" width="987" height="479">
<path d="M987 0H0V479H987V0Z" fill="white"/>
</mask>
<g mask="url(#mask2_1_596)">
<g opacity="0.15">
<path d="M-145.948 176.981C-103.852 168.774 -57.6605 165.79 -13.586 170.246C55.3608 177.213 119.822 201.929 189.124 196.024C225.628 192.915 257.405 181.59 291.372 173.875C363.561 157.477 448.774 157.859 520.425 174.902C577.301 188.431 632.144 212.49 693.683 207.105C736.366 203.369 770.161 185.955 811.23 178.764C843.002 173.202 877.433 174.044 910.725 175.879C965.854 178.917 1020.48 184.511 1073.76 192.572C1098.07 196.249 1125.77 200.24 1147.28 193.218C1153.58 204.074 1138.82 215.961 1119.22 220.638C1099.63 225.318 1076.93 224.365 1055.83 222.149C974.288 213.584 894.484 187.538 813.722 197.981C777.05 202.724 744.563 214.749 707.378 218.197C630.446 225.33 559.678 194.765 482.421 188.671C356.203 178.721 231.012 234.871 108.225 216.508C62.8472 209.722 24.8231 193.422 -18.7036 183.838C-58.5883 175.052 -103.013 172.092 -145.785 175.367" fill="white"/>
</g>
</g>
<mask id="mask3_1_596" style="mask-type:luminance" maskUnits="userSpaceOnUse" x="0" y="0" width="987" height="479">
<path d="M987 0H0V479H987V0Z" fill="white"/>
</mask>
<g mask="url(#mask3_1_596)">
<path d="M840.144 305.983C838.688 304.46 837.218 302.936 835.742 301.413C835.609 301.275 835.481 301.141 835.347 301.004C834.627 300.26 833.896 299.516 833.171 298.772C833.132 298.732 833.092 298.693 833.053 298.654C832.357 297.945 831.661 297.237 830.96 296.528C830.832 296.398 830.709 296.272 830.58 296.142C829.06 294.607 827.535 293.08 825.991 291.557C825.922 291.486 825.848 291.415 825.778 291.348C824.184 289.777 822.581 288.215 820.962 286.664C820.942 286.648 820.922 286.628 820.908 286.609C820.118 285.853 819.323 285.097 818.524 284.345C818.514 284.334 818.504 284.326 818.489 284.314C816.037 282.003 813.554 279.724 811.038 277.489C811.003 277.461 810.973 277.43 810.944 277.402C810.909 277.37 810.87 277.335 810.83 277.304C807.44 274.296 803.995 271.372 800.482 268.549C800.462 268.534 800.442 268.518 800.422 268.502C800.403 268.486 800.383 268.471 800.363 268.455C785.691 256.689 769.885 246.798 752.444 240.83C718.995 229.38 683.226 236.406 652.886 254.206C636.126 264.035 621.252 277.406 606.131 289.844C594.514 299.413 582.917 309.431 570.624 318.103C569.538 318.874 568.443 319.634 567.342 320.386C565.699 321.5 564.051 322.598 562.383 323.649C559.604 325.408 556.732 326.995 553.781 328.376L553.786 328.368C552.478 328.982 551.156 329.549 549.803 330.073C549.112 330.344 548.417 330.6 547.716 330.848C547.583 330.895 547.449 330.943 547.321 330.986C546.744 331.187 546.156 331.376 545.574 331.557C545.15 331.687 544.72 331.809 544.291 331.931C543.911 332.041 543.526 332.151 543.141 332.249C542.273 332.474 541.394 332.682 540.511 332.863C539.489 333.076 538.468 333.241 537.441 333.375C536.972 333.434 536.504 333.466 536.03 333.513C535.452 333.568 534.875 333.639 534.293 333.674C533.923 333.698 533.552 333.698 533.187 333.71C532.487 333.737 531.786 333.765 531.085 333.761C530.858 333.761 530.631 333.745 530.404 333.741C529.545 333.725 528.687 333.702 527.833 333.643C527.778 333.639 527.719 333.631 527.665 333.627C526.451 333.544 525.232 333.418 524.018 333.261C523.061 333.135 522.108 333.005 521.156 332.84C520.82 332.781 520.485 332.726 520.149 332.663C518.841 332.423 517.543 332.159 516.25 331.852C515.204 331.604 514.163 331.328 513.126 331.037C512.534 330.868 511.947 330.683 511.355 330.502C510.93 330.372 510.506 330.25 510.087 330.112C509.346 329.872 508.611 329.62 507.881 329.364C507.624 329.274 507.367 329.191 507.116 329.096C506.301 328.805 505.492 328.502 504.683 328.195C504.53 328.136 504.377 328.081 504.229 328.022C501.485 326.959 498.756 325.81 496.051 324.629C485.821 320.145 475.739 315.186 464.872 312.875C446.04 308.884 426.744 314.308 409.763 323.082C409.195 323.373 408.638 323.68 408.08 323.979C407.853 323.739 407.621 323.499 407.394 323.259C407.231 323.09 407.073 322.921 406.911 322.751C405.968 321.771 405.015 320.803 404.043 319.854C404.004 319.815 403.959 319.772 403.92 319.728L403.925 319.732C402.286 318.142 400.604 316.603 398.852 315.135C398.837 315.111 398.817 315.107 398.807 315.095C398.743 315.04 398.679 314.993 398.615 314.938C397.741 314.206 396.853 313.489 395.96 312.785C395.723 312.6 395.486 312.419 395.249 312.238C394.415 311.592 393.576 310.954 392.727 310.332C392.688 310.305 392.648 310.269 392.609 310.242L392.619 310.25C387.743 306.668 382.62 303.464 377.296 300.72C360.314 291.946 341.018 286.522 322.186 290.514C311.334 292.82 301.267 297.772 291.051 302.251C288.322 303.444 285.579 304.601 282.81 305.672C282.677 305.723 282.548 305.77 282.415 305.822C281.586 306.14 280.757 306.447 279.923 306.747C279.696 306.829 279.464 306.904 279.237 306.987C278.482 307.25 277.722 307.51 276.962 307.758C276.562 307.888 276.163 308.006 275.758 308.128C275.146 308.317 274.539 308.506 273.927 308.683C272.896 308.974 271.854 309.25 270.808 309.498C269.515 309.805 268.217 310.069 266.909 310.309C266.574 310.372 266.233 310.431 265.898 310.49C264.871 310.667 263.84 310.813 262.808 310.943C262.32 311.006 261.831 311.069 261.338 311.116C260.637 311.187 259.931 311.242 259.231 311.289C258.372 311.344 257.508 311.372 256.645 311.387C256.418 311.391 256.196 311.403 255.969 311.407C255.268 311.411 254.562 311.383 253.861 311.356C253.496 311.344 253.131 311.344 252.761 311.32C252.174 311.285 251.586 311.214 250.999 311.159C250.54 311.112 250.076 311.084 249.617 311.025C248.591 310.891 247.564 310.722 246.543 310.514C245.659 310.332 244.781 310.124 243.907 309.896C243.532 309.797 243.157 309.691 242.787 309.585C242.348 309.463 241.909 309.337 241.47 309.203C240.892 309.022 240.315 308.837 239.742 308.64C239.604 308.593 239.466 308.545 239.323 308.494C238.627 308.246 237.931 307.994 237.245 307.723C235.893 307.199 234.57 306.632 233.263 306.018L233.268 306.022C230.316 304.641 227.444 303.054 224.666 301.295C222.998 300.244 221.354 299.146 219.716 298.036C218.616 297.28 217.515 296.516 216.424 295.745C204.131 287.073 192.534 277.056 180.917 267.487C165.796 255.048 150.922 241.681 134.163 231.848C103.818 214.052 68.0487 207.022 34.6042 218.473C18.3681 224.031 3.53839 232.989 -10.2697 243.696C-10.2994 243.716 -10.324 243.739 -10.3487 243.759C-11.3406 244.527 -12.3227 245.306 -13.3048 246.093C-13.3294 246.113 -13.3492 246.129 -13.3739 246.148C-13.3985 246.168 -13.4183 246.188 -13.4429 246.203C-15.1899 247.605 -16.9172 249.034 -18.6346 250.486L-18.6395 250.49C-20.3569 251.946 -22.0595 253.422 -23.7472 254.922C-23.7966 254.965 -23.8459 255.009 -23.8953 255.052C-23.9397 255.087 -23.9792 255.131 -24.0187 255.166C-26.5207 257.39 -28.9931 259.657 -31.431 261.96C-31.4458 261.976 -31.4656 261.992 -31.4804 262.007C-32.27 262.751 -33.0596 263.499 -33.8442 264.251C-33.8689 264.279 -33.8985 264.302 -33.9232 264.33C-35.532 265.873 -37.1309 267.428 -38.7151 268.994C-38.7891 269.069 -38.8681 269.144 -38.9421 269.219C-40.4769 270.738 -42.0067 272.261 -43.5168 273.792C-43.6451 273.922 -43.7685 274.048 -43.8968 274.178C-44.5927 274.887 -45.2885 275.591 -45.9843 276.3C-46.0288 276.347 -46.0732 276.394 -46.1225 276.438C-46.8282 277.158 -47.5339 277.882 -48.2347 278.603C-48.4025 278.776 -48.5703 278.949 -48.7381 279.122C-50.1939 280.626 -51.6448 282.133 -53.0858 283.637C-78.047 309.707 -99.7364 338.87 -121.199 368.258C-121.436 373.241 -119.259 379.339 -117.734 382.846C-115.311 388.408 -110.998 392.619 -106.033 395.536C-94.4707 402.31 -80.7317 403.971 -67.8267 405.015C-58.8598 405.747 -49.8978 406.266 -40.9358 406.632C-40.7384 406.932 -40.5756 407.203 -40.5114 407.345C-40.3239 407.782 -40.161 408.266 -40.0377 408.75C-39.8797 409.325 -39.7712 409.927 -39.6725 410.521C-40.1413 409.907 -40.694 409.364 -41.3405 408.97C-41.8241 408.663 -42.3571 408.431 -42.9098 408.317C-43.4774 408.183 -44.0301 408.132 -44.6223 408.207L-46.69 408.486L-44.6124 408.746C-43.9412 408.829 -43.3737 409.368 -42.974 410.018C-42.6976 410.451 -42.4756 410.931 -42.3028 411.431C-42.9049 410.99 -43.5958 410.675 -44.3212 410.545C-44.8098 410.47 -45.2984 410.462 -45.8017 410.537C-46.2854 410.616 -46.7443 410.742 -47.2082 410.986L-47.8448 411.23C-47.4106 411.096 -46.162 411.297 -45.7425 411.541C-45.4069 411.734 -45.096 412.001 -44.8394 412.304C-45.3527 412.328 -45.856 412.505 -46.2903 412.797C-46.8134 413.143 -47.2576 413.596 -47.6178 414.123L-47.4846 414.005C-46.9812 413.438 -46.3397 413.218 -45.5994 413.19C-44.869 413.159 -44.1584 413.576 -43.6797 414.17C-44.1337 413.548 -44.8394 413.088 -45.6093 413.088C-46.0041 413.088 -46.3791 413.214 -46.7147 413.399C-46.5469 413.257 -46.3643 413.111 -46.1817 412.997C-45.6734 412.69 -45.101 412.525 -44.5433 412.588L-44.2225 412.635L-44.4199 412.348C-44.7506 411.895 -45.1355 411.525 -45.5994 411.238C-45.7672 411.139 -45.9449 411.068 -46.1275 411.006C-46.0041 410.982 -45.8807 410.939 -45.7475 410.923C-45.2984 410.868 -44.8345 410.88 -44.3903 410.97C-43.4872 411.139 -42.6729 411.627 -42.0117 412.297L-41.454 412.844L-41.6317 412.053C-41.7254 411.627 -41.8537 411.234 -42.0067 410.84C-42.1548 410.451 -42.3472 410.073 -42.5644 409.703C-42.7815 409.368 -43.428 408.719 -43.8919 408.482C-43.7883 408.498 -43.5909 408.423 -43.0332 408.64C-42.0758 409.006 -41.9031 409.136 -41.4491 409.407C-40.5608 409.97 -39.5639 411.238 -39.5639 411.238L-39.3566 412.092L-39.406 411.041C-39.5195 409.99 -39.5047 409.258 -39.7662 408.246C-39.8748 407.849 -40.1462 407.105 -40.4571 406.64C-40.4127 406.64 -40.3634 406.644 -40.314 406.648C-39.8551 407.002 -39.2579 407.593 -39.0803 407.817C-38.5325 408.518 -37.7478 410.226 -37.5208 411.116L-37.3925 411.427L-37.5257 410.376C-37.4419 410.006 -37.3185 409.6 -37.1507 409.246C-36.9928 408.872 -36.7904 408.534 -36.5437 408.238C-36.2377 407.849 -35.8429 407.561 -35.4185 407.4C-35.4481 407.443 -35.4827 407.49 -35.5123 407.534C-35.6899 407.833 -35.833 408.156 -35.9367 408.478C-36.1538 409.14 -36.218 409.836 -36.218 410.513L-36.2081 411.324L-35.7936 410.655C-35.5962 410.336 -35.3395 410.029 -35.0681 409.77C-34.7868 409.498 -34.4858 409.258 -34.1601 409.085C-33.7209 408.837 -33.252 408.703 -32.7733 408.66C-32.8572 408.715 -32.9411 408.774 -33.0349 408.837C-33.3211 409.073 -33.5827 409.352 -33.8097 409.651C-34.2637 410.262 -34.5845 410.978 -34.7918 411.722L-34.9151 412.155L-34.5697 411.883C-34.3476 411.686 -34.0466 411.549 -33.7751 411.458C-33.484 411.36 -33.178 411.313 -32.872 411.313C-32.3736 411.313 -31.8752 411.446 -31.4113 411.671C-32.0134 411.694 -32.6154 411.856 -33.1435 412.19C-33.7554 412.596 -34.1996 413.257 -34.4414 413.973C-34.1699 413.265 -33.7061 412.639 -33.0941 412.277C-32.4822 411.915 -31.7567 411.777 -31.0806 411.84L-30.7105 411.895L-31.0313 411.683C-31.5741 411.332 -32.2108 411.096 -32.8671 411.072C-33.1928 411.065 -33.5235 411.108 -33.8393 411.198C-34.0367 411.257 -34.2144 411.332 -34.392 411.427C-34.1946 410.864 -33.9232 410.336 -33.558 409.884C-33.3507 409.604 -33.0941 409.352 -32.8227 409.144C-32.5611 408.939 -32.2453 408.754 -31.9591 408.663L-31.1547 408.388L-31.9837 408.27C-32.7832 408.152 -33.6172 408.301 -34.3525 408.695C-34.7227 408.884 -35.0484 409.14 -35.3593 409.419C-35.4827 409.537 -35.5962 409.663 -35.7097 409.789C-35.6653 409.396 -35.5912 409.026 -35.4777 408.667C-35.384 408.368 -35.2606 408.093 -35.0977 407.845C-34.9497 407.597 -34.7375 407.345 -34.545 407.207L-34.1107 406.88C-8.51782 407.707 17.0702 407.361 42.7075 407.081C50.9588 406.991 59.2052 406.951 67.4565 406.939C67.422 406.963 67.3775 406.971 67.343 406.995C66.8248 407.345 66.3807 407.794 66.0155 408.317L66.1487 408.195C66.6669 407.644 67.2986 407.416 68.029 407.388C68.7643 407.357 69.4749 407.77 69.9635 408.368C69.4996 407.754 68.8038 407.282 68.029 407.29C67.6342 407.29 67.2591 407.416 66.9285 407.612C67.0913 407.455 67.2739 407.329 67.4664 407.215C67.649 407.101 67.8365 407.014 68.0339 406.943C69.3762 406.939 70.7235 406.935 72.0658 406.932L72.1941 407.061L72.1645 406.932C74.7406 406.932 77.3216 406.939 79.8977 406.943C79.5867 407.302 79.3449 407.723 79.187 408.175C79.3696 407.707 79.641 407.286 79.9815 406.943C87.542 406.959 95.1024 406.991 102.658 407.042C122.418 407.176 142.202 408.018 161.967 407.86C171.876 407.782 181.717 406.538 191.592 405.703C195.663 405.349 199.729 405.018 203.801 404.692C203.648 404.759 203.49 404.822 203.352 404.912C202.833 405.263 202.384 405.707 202.019 406.235L202.147 406.125C202.666 405.562 203.297 405.333 204.038 405.314C204.773 405.274 205.479 405.699 205.967 406.298C205.503 405.68 204.803 405.204 204.038 405.207C203.633 405.207 203.263 405.333 202.927 405.526C203.1 405.381 203.278 405.239 203.465 405.133C203.959 404.822 204.541 404.652 205.099 404.711L205.424 404.767L205.291 404.574C206.061 404.511 206.836 404.452 207.606 404.389C207.62 404.401 207.63 404.408 207.645 404.424L208.203 404.975L208.06 404.353C208.8 404.294 209.54 404.239 210.285 404.184L210.295 404.219V404.184C211.815 404.066 213.335 403.952 214.855 403.838L214.85 403.849L214.732 404.286L215.072 404.011C215.186 403.916 215.339 403.869 215.477 403.794C216.227 403.735 216.982 403.68 217.732 403.621C217.9 403.676 218.068 403.727 218.231 403.806C217.624 403.822 217.031 403.991 216.503 404.33C215.896 404.727 215.447 405.385 215.201 406.101C215.472 405.4 215.946 404.774 216.558 404.408C217.165 404.034 217.895 403.897 218.571 403.975L218.931 404.019L218.62 403.822C218.472 403.727 218.31 403.668 218.152 403.59C219.242 403.507 220.333 403.42 221.429 403.342C241.396 401.862 261.358 400.417 281.285 398.618C299.298 396.985 317.335 395.674 335.368 394.269C332.14 397.209 328.839 400.039 325.488 402.81C326.82 403.176 328.158 403.515 329.505 403.834L328.844 404.196C328.562 404.345 328.321 404.519 328.099 404.715C327.872 404.92 327.659 405.141 327.472 405.389C327.21 405.739 326.988 406.132 326.835 406.546C326.796 406.463 326.766 406.361 326.727 406.282C326.608 406.018 326.475 405.774 326.292 405.554C326.115 405.345 325.902 405.156 325.651 405.03C325.414 404.896 325.138 404.834 324.861 404.818L324.323 404.794L324.772 405.129C324.896 405.231 325.034 405.377 325.133 405.538C325.226 405.699 325.31 405.869 325.369 406.058C325.444 406.282 325.488 406.53 325.527 406.762C325.439 406.684 325.379 406.609 325.295 406.534C325.108 406.353 324.896 406.207 324.659 406.073C324.195 405.825 323.667 405.735 323.164 405.81L322.645 405.881L323.154 406.058C323.346 406.121 323.534 406.235 323.701 406.357C323.869 406.495 324.022 406.656 324.165 406.821C324.392 407.117 324.56 407.455 324.693 407.805C324.585 407.746 324.461 407.699 324.343 407.664C324.141 407.601 323.943 407.569 323.726 407.585C323.312 407.585 322.912 407.742 322.576 407.971L322.369 408.101L322.601 408.077C323.025 408.026 323.484 408.112 323.869 408.352C324.244 408.581 324.56 408.974 324.718 409.415C324.57 408.959 324.289 408.545 323.889 408.29C323.573 408.077 323.193 407.975 322.818 407.967C323.099 407.825 323.41 407.735 323.721 407.735C323.914 407.735 324.106 407.77 324.294 407.829C324.481 407.884 324.659 407.975 324.807 408.097L325.019 408.266L324.95 407.986C324.812 407.522 324.619 407.073 324.328 406.676C324.18 406.491 324.007 406.317 323.825 406.168C323.775 406.129 323.716 406.093 323.667 406.054C323.978 406.085 324.269 406.168 324.545 406.329C324.762 406.436 324.95 406.597 325.128 406.762C325.291 406.932 325.458 407.124 325.587 407.317L325.848 407.742V407.227C325.848 406.802 325.799 406.365 325.661 405.944C325.601 405.731 325.508 405.534 325.394 405.353C325.379 405.322 325.36 405.294 325.335 405.263C325.606 405.365 325.858 405.546 326.046 405.786C326.204 405.975 326.337 406.203 326.44 406.432C326.534 406.66 326.618 406.908 326.677 407.14L326.593 407.797L326.667 407.609C326.815 407.05 327.304 405.971 327.649 405.522C327.788 405.349 328.316 404.826 328.622 404.656C328.375 404.928 328.158 405.507 328.084 405.794C327.916 406.428 327.936 406.888 327.857 407.561L327.822 408.223L327.955 407.675C327.955 407.675 328.587 406.88 329.145 406.53C329.431 406.349 329.535 406.27 330.147 406.042C330.502 405.908 330.625 405.951 330.694 405.944C330.403 406.089 329.984 406.506 329.855 406.715C329.712 406.939 329.599 407.187 329.505 407.431C329.406 407.683 329.332 407.927 329.263 408.199L329.14 408.707L329.49 408.356C329.924 407.931 330.443 407.62 331.005 407.518C331.287 407.463 331.578 407.447 331.864 407.487C331.943 407.498 332.027 407.518 332.106 407.534C331.987 407.581 331.874 407.62 331.77 407.683C331.469 407.857 331.227 408.093 331.025 408.384L330.902 408.561L331.104 408.53C331.454 408.498 331.815 408.612 332.14 408.801C332.259 408.876 332.367 408.955 332.481 409.053C332.264 408.935 332.012 408.852 331.775 408.852C331.282 408.852 330.842 409.148 330.546 409.537C330.857 409.159 331.306 408.896 331.775 408.919C332.239 408.935 332.634 409.077 332.96 409.435L333.043 409.502C332.826 409.175 332.53 408.896 332.209 408.667C331.938 408.49 331.617 408.372 331.282 408.36C331.449 408.168 331.652 408.002 331.859 407.872C332.13 407.731 332.905 407.589 333.182 407.679L332.787 407.522C332.486 407.38 332.19 407.298 331.884 407.242C331.573 407.191 331.267 407.191 330.951 407.25C330.497 407.317 330.068 407.518 329.683 407.805C329.801 407.487 329.929 407.191 330.102 406.916C330.354 406.506 330.719 406.168 331.138 406.105L332.451 405.944L331.148 405.77C330.773 405.707 330.418 405.751 330.073 405.829C329.717 405.912 329.382 406.058 329.076 406.251C328.671 406.499 328.316 406.837 328.029 407.235C328.089 406.857 328.158 406.475 328.256 406.121C328.33 405.806 328.429 405.507 328.558 405.231C328.671 404.959 329.303 404.046 329.535 403.838C348.367 408.282 368.748 408.101 387.254 410.427C426.655 415.387 466.313 417.398 505.838 420.98C525.765 422.775 545.727 424.223 565.694 425.703C566.785 425.786 567.875 425.873 568.971 425.951C568.813 426.026 568.65 426.085 568.502 426.184L568.191 426.38L568.551 426.337C569.228 426.258 569.958 426.396 570.565 426.766C571.177 427.132 571.651 427.758 571.922 428.459C571.67 427.742 571.226 427.085 570.614 426.687C570.086 426.349 569.489 426.176 568.887 426.164C569.045 426.085 569.218 426.034 569.385 425.979C570.136 426.034 570.891 426.093 571.641 426.152C571.779 426.223 571.932 426.274 572.045 426.369L572.386 426.644L572.267 426.207L572.263 426.199C573.783 426.314 575.303 426.428 576.823 426.546V426.581L576.832 426.546C577.573 426.605 578.313 426.656 579.058 426.715L578.915 427.337L579.473 426.786C579.487 426.774 579.497 426.762 579.512 426.75C580.282 426.809 581.057 426.872 581.827 426.935L581.693 427.128L582.019 427.073C582.577 427.014 583.159 427.183 583.653 427.494C583.84 427.601 584.018 427.742 584.19 427.888C583.855 427.695 583.485 427.569 583.08 427.569C582.315 427.565 581.614 428.042 581.151 428.66C581.639 428.061 582.345 427.64 583.08 427.675C583.815 427.695 584.447 427.923 584.97 428.486L585.099 428.597C584.733 428.069 584.289 427.628 583.766 427.274C583.628 427.183 583.47 427.124 583.317 427.054C587.388 427.38 591.455 427.711 595.526 428.065C605.401 428.904 615.241 430.143 625.151 430.222C644.916 430.38 664.7 429.537 684.46 429.403C692.02 429.352 699.581 429.321 707.136 429.305C707.472 429.648 707.743 430.069 707.931 430.537C707.773 430.084 707.526 429.659 707.22 429.305C709.796 429.301 712.372 429.289 714.953 429.293L714.924 429.423L715.052 429.293C716.394 429.293 717.741 429.301 719.084 429.301C719.281 429.372 719.469 429.459 719.651 429.577C719.849 429.691 720.031 429.817 720.189 429.974C719.859 429.777 719.484 429.651 719.089 429.651C718.314 429.648 717.618 430.12 717.154 430.734C717.643 430.14 718.353 429.722 719.089 429.754C719.819 429.781 720.451 430.01 720.969 430.561L721.102 430.683C720.737 430.159 720.293 429.71 719.775 429.36C719.74 429.337 719.696 429.325 719.661 429.305C727.912 429.321 736.159 429.356 744.41 429.447C770.048 429.726 795.64 430.073 821.228 429.246L821.663 429.573C821.855 429.711 822.067 429.962 822.21 430.21C822.373 430.462 822.497 430.738 822.59 431.033C822.709 431.387 822.783 431.761 822.827 432.155C822.709 432.025 822.6 431.903 822.477 431.785C822.166 431.505 821.84 431.253 821.47 431.065C820.735 430.667 819.896 430.521 819.101 430.639L818.272 430.754L819.077 431.033C819.358 431.124 819.679 431.309 819.94 431.513C820.212 431.726 820.468 431.978 820.676 432.253C821.041 432.706 821.312 433.233 821.51 433.796C821.332 433.698 821.154 433.623 820.962 433.564C820.646 433.477 820.315 433.43 819.99 433.438C819.333 433.462 818.697 433.694 818.154 434.048L817.838 434.261L818.208 434.21C818.884 434.147 819.61 434.284 820.222 434.647C820.834 435.009 821.297 435.635 821.569 436.343C821.327 435.627 820.883 434.965 820.276 434.56C819.748 434.225 819.146 434.064 818.544 434.04C819.008 433.82 819.506 433.682 820 433.682C820.306 433.682 820.607 433.729 820.903 433.828C821.179 433.918 821.48 434.06 821.702 434.253L822.048 434.524L821.924 434.092C821.717 433.348 821.396 432.631 820.942 432.021C820.715 431.726 820.454 431.442 820.167 431.206C820.074 431.143 819.99 431.084 819.906 431.029C820.385 431.072 820.853 431.206 821.293 431.454C821.618 431.623 821.919 431.868 822.201 432.139C822.472 432.399 822.729 432.706 822.926 433.025L823.341 433.694L823.35 432.883C823.35 432.206 823.281 431.509 823.069 430.848C822.961 430.521 822.817 430.203 822.645 429.903C822.615 429.86 822.586 429.813 822.551 429.77C822.975 429.935 823.37 430.218 823.676 430.608C823.923 430.903 824.12 431.242 824.283 431.616C824.451 431.97 824.574 432.375 824.658 432.745L824.525 433.796L824.653 433.485C824.88 432.596 825.66 430.887 826.213 430.187C826.39 429.962 826.988 429.368 827.447 429.014C827.496 429.014 827.54 429.01 827.59 429.01C827.279 429.474 827.007 430.214 826.899 430.612C826.637 431.624 826.647 432.356 826.538 433.407L826.489 434.454L826.696 433.603C826.696 433.603 827.693 432.336 828.582 431.773C829.031 431.501 829.203 431.372 830.161 431.006C830.718 430.789 830.911 430.868 831.019 430.848C830.556 431.088 829.914 431.738 829.692 432.068C829.475 432.438 829.287 432.816 829.134 433.206C828.976 433.599 828.853 433.993 828.759 434.418L828.582 435.209L829.139 434.662C829.805 433.993 830.62 433.505 831.518 433.336C831.962 433.245 832.426 433.233 832.875 433.289C833.003 433.304 833.127 433.348 833.255 433.371C833.077 433.434 832.895 433.505 832.727 433.603C832.263 433.887 831.878 434.261 831.547 434.713L831.35 435.001L831.671 434.954C832.228 434.891 832.806 435.06 833.314 435.363C833.497 435.477 833.679 435.623 833.847 435.764C833.512 435.575 833.137 435.453 832.742 435.453C831.972 435.453 831.266 435.914 830.812 436.536C831.291 435.942 832.002 435.524 832.732 435.556C833.472 435.579 834.114 435.804 834.617 436.371L834.75 436.489C834.39 435.965 833.946 435.509 833.423 435.162C832.989 434.867 832.485 434.694 831.972 434.67C832.233 434.367 832.539 434.099 832.875 433.907C833.294 433.662 834.538 433.462 834.977 433.596L834.341 433.352C833.877 433.107 833.418 432.981 832.934 432.903C832.431 432.828 831.942 432.836 831.454 432.911C830.728 433.037 830.037 433.352 829.435 433.796C829.608 433.292 829.83 432.816 830.106 432.383C830.506 431.734 831.074 431.194 831.745 431.112L833.822 430.852L831.755 430.573C831.158 430.498 830.605 430.549 830.037 430.683C829.485 430.801 828.952 431.029 828.468 431.34C827.822 431.738 827.269 432.277 826.8 432.891C826.899 432.297 827.007 431.694 827.165 431.12C827.293 430.636 827.451 430.151 827.639 429.714C827.703 429.573 827.866 429.301 828.063 429.002C837.025 428.636 845.987 428.116 854.954 427.384C867.859 426.337 881.598 424.68 893.161 417.906C898.126 414.985 902.444 410.777 904.862 405.215C906.387 401.708 908.558 395.607 908.326 390.628C886.795 361.216 865.11 332.057 840.144 305.983ZM-35.9416 407.014C-36.3315 407.227 -36.6671 407.526 -36.9533 407.86C-37.2296 408.207 -37.4567 408.597 -37.6392 408.998C-37.6985 409.128 -37.7478 409.281 -37.807 409.415C-38.0587 408.758 -38.3943 408.14 -38.8237 407.585C-39.0803 407.254 -39.3764 406.951 -39.6774 406.664C-38.2611 406.719 -36.8398 406.766 -35.4234 406.813C-35.6011 406.869 -35.7788 406.928 -35.9416 407.014ZM825.872 429.951C825.443 430.502 825.107 431.12 824.856 431.781C824.796 431.647 824.747 431.494 824.688 431.364C824.505 430.958 824.278 430.569 824.002 430.226C823.716 429.888 823.38 429.592 822.99 429.376C822.827 429.289 822.655 429.234 822.477 429.183C823.893 429.136 825.31 429.089 826.731 429.033C826.43 429.317 826.134 429.62 825.872 429.951Z" fill="url(#paint0_linear_1_596)"/>
</g>
<mask id="mask4_1_596" style="mask-type:luminance" maskUnits="userSpaceOnUse" x="0" y="0" width="987" height="479">
<path d="M987 0H0V479H987V0Z" fill="white"/>
</mask>
<g mask="url(#mask4_1_596)">
<path d="M524.615 444.176L523.87 443.771C523.337 443.389 522.789 443.18 522.212 443.043C521.639 442.917 521.057 442.936 520.494 443.074C519.646 443.259 518.836 443.779 518.135 444.503C518.338 443.692 518.594 442.897 518.92 442.188C519.394 441.141 520.05 440.24 520.825 440.106L523.273 439.677L520.845 439.236C520.149 439.098 519.503 439.193 518.846 439.402C518.2 439.606 517.578 439.968 517.005 440.48C516.245 441.13 515.589 442.011 515.046 443.019C515.16 442.035 515.308 441.055 515.476 440.102C515.614 439.319 515.801 438.551 516.033 437.827C516.265 437.107 517.524 434.544 517.899 434.151L516.576 435.154C516.073 435.54 515.614 435.993 515.209 436.524C514.785 437.032 514.4 437.611 514.049 438.244C513.551 439.146 513.161 440.153 512.855 441.244C512.791 441.004 512.727 440.771 512.663 440.531C512.45 439.886 512.184 439.26 511.848 438.693C511.518 438.146 511.138 437.638 510.674 437.311C510.215 436.965 509.711 436.796 509.223 436.768L508.206 436.701L509.06 437.583C509.282 437.823 509.509 438.217 509.707 438.63C509.884 439.039 510.037 439.5 510.146 439.988C510.284 440.571 510.373 441.185 510.417 441.822C510.294 441.606 510.156 441.405 510.003 441.22C509.652 440.748 509.262 440.338 508.828 440.02C507.979 439.374 506.992 439.142 506.055 439.342L505.077 439.543L506.025 439.968C506.366 440.134 506.731 440.433 507.037 440.771C507.367 441.114 507.649 441.523 507.9 441.98C508.33 442.728 508.641 443.594 508.882 444.523C508.67 444.349 508.453 444.219 508.236 444.137C507.866 443.971 507.476 443.909 507.086 443.916C506.326 443.96 505.581 444.349 504.939 444.924L504.564 445.259L504.999 445.184C505.788 445.062 506.632 445.298 507.357 445.9C508.068 446.491 508.606 447.51 508.942 448.667C508.65 447.494 508.132 446.408 507.407 445.759C506.79 445.2 506.104 444.952 505.383 444.904C505.926 444.538 506.504 444.322 507.091 444.322C507.451 444.322 507.807 444.397 508.152 444.554C508.488 444.719 508.818 444.944 509.08 445.251L509.489 445.699L509.346 444.975C509.109 443.763 508.729 442.602 508.201 441.602C507.925 441.11 507.639 440.661 507.283 440.264C507.175 440.161 507.086 440.063 506.987 439.984C507.545 440.043 508.098 440.264 508.611 440.681C508.991 440.968 509.351 441.35 509.667 441.791C509.988 442.22 510.294 442.728 510.531 443.235L511.019 444.326L511.029 443.019C511.029 441.897 510.945 440.763 510.689 439.701C510.57 439.157 510.397 438.626 510.185 438.15C510.156 438.067 510.116 437.984 510.062 437.914C510.585 438.189 511.039 438.65 511.409 439.283C511.69 439.783 511.927 440.334 512.105 440.941C512.297 441.535 512.45 442.184 512.549 442.795L512.386 444.519L512.539 444.003C512.816 442.554 513.724 439.768 514.375 438.618C514.617 438.154 515.594 436.8 516.137 436.359C515.693 437.056 515.308 438.567 515.174 439.307C514.864 440.964 514.878 442.161 514.755 443.873L514.676 445.585L514.933 444.192C514.933 444.192 516.097 442.118 517.149 441.216C517.667 440.756 517.864 440.535 518.999 439.96C519.646 439.602 519.883 439.724 520.006 439.709C519.463 440.067 518.703 441.133 518.456 441.688C518.185 442.283 517.978 442.909 517.795 443.55C517.612 444.188 517.454 444.834 517.366 445.526L517.144 446.825L517.795 445.924C518.565 444.834 519.527 444.031 520.583 443.763C521.106 443.617 521.644 443.594 522.167 443.688C522.325 443.716 522.468 443.775 522.621 443.826C522.399 443.916 522.187 444.034 522 444.192C521.452 444.66 521.008 445.274 520.618 446.018L520.381 446.475L520.761 446.416C521.422 446.298 522.088 446.573 522.686 447.081C522.903 447.274 523.115 447.498 523.317 447.735C522.913 447.412 522.468 447.219 522.014 447.219C521.111 447.207 520.287 447.986 519.754 448.994C520.312 448.01 521.146 447.325 522.014 447.388C522.878 447.439 523.623 447.805 524.215 448.707L524.368 448.911C523.944 448.049 523.426 447.305 522.809 446.739C522.301 446.262 521.708 445.967 521.106 445.924C521.417 445.428 521.773 444.987 522.162 444.692C522.656 444.282 524.102 443.971 524.615 444.176Z" fill="url(#paint1_radial_1_596)"/>
</g>
<defs>
<linearGradient id="paint0_linear_1_596" x1="393.525" y1="212.889" x2="393.525" y2="436.523" gradientUnits="userSpaceOnUse">
<stop stop-color="#120A2A"/>
<stop offset="0.2434" stop-color="#1F1240"/>
<stop offset="0.5657" stop-color="#3B1D6B"/>
<stop offset="0.9309" stop-color="#520BA9"/>
<stop offset="1" stop-color="#6A2EFF"/>
</linearGradient>
<radialGradient id="paint1_radial_1_596" cx="0" cy="0" r="1" gradientUnits="userSpaceOnUse" gradientTransform="translate(514.932 452.674) scale(13.9197 11.1025)">
<stop offset="0.4554" stop-color="#136828"/>
<stop offset="1" stop-color="#DFF947"/>
</radialGradient>
</defs>
</svg>
